PathFileType	4	(X/Y/Z)	D:\TRACE\v60_Jaco2_6-2-23\JustBodyDRS_Motion3_1-platform.trc
DataRate	CameraRate	NumFrames	NumMarkers	Units	OrigDataRate	OrigDataStartFrame	OrigNumFrames
100.00	100.00	      48	5	mm	100.00	876	      7000
Frame#	Time	Left_Front			Right_Front			Left_Aft			Right_Aft			Post			
		X1	Y1	Z1	X2	Y2	Z2	X3	Y3	Z3	X4	Y4	Z4	X5	Y5	Z5	

876	8.750	-782.09589	-19.79602	-657.38379	788.57990	-21.15464	-634.68549	-713.66437	30.38757	475.86032	701.26135	32.13147	580.85480	14.29454	1262.95166	-1026.08337	
877	8.760	-782.03168	-19.73480	-657.40002	788.61578	-21.12416	-634.69000	-713.68384	30.39260	475.83817	701.44592	32.32037	581.24622	14.16125	1262.76099	-1025.91650	
878	8.770	-781.93506	-19.61208	-657.47412	788.80249	-21.05404	-634.64056	-713.77289	30.78117	475.61801	701.31238	32.05556	580.71857	14.22800	1262.78748	-1026.03613	
879	8.780	-781.97192	-19.66189	-657.46521	788.66382	-21.20429	-634.86041	-713.68549	30.72696	475.60657	701.31531	31.94309	580.71967	14.24219	1262.79919	-1026.24939	
880	8.790	-781.91534	-19.70175	-657.44275	788.67157	-21.15060	-634.91455	-713.57544	30.64322	475.61389	701.30786	31.97604	580.73389	14.38825	1262.94421	-1026.57971	
881	8.800	-781.90747	-19.77040	-657.45483	788.71527	-21.18035	-634.85046	-713.52435	30.59576	475.60666	701.32300	31.97840	580.70819	14.64076	1262.88293	-1026.57275	
882	8.810	-781.84583	-19.69737	-657.41370	788.74615	-21.28852	-634.80084	-713.27570	30.37593	475.88104	701.38129	31.93493	580.69928	14.65750	1262.92859	-1026.57849	
883	8.820	-781.74445	-19.58773	-657.43768	788.90698	-21.18196	-634.78680	-713.19171	30.39730	475.88705	701.47070	31.86578	580.70563	14.82847	1262.98035	-1026.56433	
884	8.830	-781.69940	-19.53137	-657.48810	789.05902	-21.07455	-634.83978	-713.12891	30.37206	475.83533	701.57935	31.79115	580.72516	14.70881	1263.01013	-1026.43713	
885	8.840	-781.46399	-19.40475	-657.30420	789.02374	-21.05864	-634.84113	-713.03363	30.39078	475.81458	701.69507	31.73120	580.75653	14.51881	1262.87952	-1026.17554	
886	8.850	-781.63373	-19.57368	-657.50830	789.00439	-21.21998	-634.89734	-713.00214	30.38003	475.88031	701.80597	31.70611	580.79773	14.48471	1262.85095	-1026.04150	
887	8.860	-781.25360	-19.53244	-657.23529	789.00958	-21.34343	-634.83667	-712.95862	30.40561	475.89651	701.90002	31.73607	580.84717	14.45947	1262.78088	-1025.88245	
888	8.870	-781.16351	-19.63546	-657.23523	789.15405	-21.27948	-634.79944	-712.89862	30.41832	475.94559	702.08752	31.89896	580.94843	14.66683	1262.73389	-1025.53210	
889	8.880	-781.36993	-19.79928	-657.53479	789.30585	-21.30751	-634.81567	-712.72711	30.50611	475.86951	702.67371	32.33784	581.22101	14.79437	1262.73193	-1025.62463	
890	8.890	-780.98090	-19.77737	-657.19531	789.48303	-21.32903	-634.82092	-712.61023	30.58132	475.79437	702.90796	32.59042	581.40723	14.81105	1262.69080	-1025.81421	
891	8.900	-780.90356	-19.83023	-657.21039	789.43652	-21.41868	-634.93805	-712.54327	30.60071	475.78653	702.38635	32.38087	581.31049	15.06549	1262.70544	-1026.19189	
892	8.910	-781.23712	-20.01262	-657.61194	789.52325	-21.52339	-634.89563	-712.44067	30.56159	475.83853	702.48761	32.43615	581.26520	15.39355	1262.57776	-1026.49133	
893	8.920	-781.03314	-20.08784	-657.42737	789.62646	-21.65946	-634.87109	-712.31769	30.57003	475.89438	702.55072	32.44709	581.25494	15.56190	1262.44604	-1026.69189	
894	8.930	-780.84076	-20.09796	-657.32159	789.75824	-21.70075	-634.84509	-712.17236	30.57913	475.87103	702.73303	32.54103	581.23682	15.81599	1262.43555	-1027.11353	
895	8.940	-780.80023	-20.10290	-657.40698	789.90143	-21.61117	-634.87476	-712.04462	30.70657	475.80463	702.91443	32.67449	581.23517	16.08449	1262.40039	-1027.52100	
896	8.950	-780.79944	-20.15150	-657.47223	789.92682	-21.65196	-634.99371	-712.01233	30.84053	475.72308	703.01691	32.74333	581.20062	16.00266	1262.36060	-1027.75916	
897	8.960	-780.64282	-20.21548	-657.38562	790.03522	-21.74685	-634.89246	-711.94775	30.82207	475.72403	703.12982	32.81183	581.18054	15.99489	1262.19080	-1028.05139	
898	8.970	-780.33667	-20.50559	-657.24213	790.15576	-21.89258	-634.89984	-711.75958	30.50990	475.92590	703.35864	32.89165	581.21143	16.19487	1261.93689	-1028.23389	
899	8.980	-780.11017	-20.58779	-657.22174	790.37158	-21.94349	-634.82825	-711.94446	31.15745	475.50958	703.43933	32.93097	581.15784	16.50435	1261.86682	-1028.26086	
900	8.990	-779.92914	-20.69823	-657.22119	790.59454	-21.95619	-634.84363	-711.76398	31.40706	475.46442	703.57037	32.98617	581.14838	16.65871	1261.88452	-1028.22119	
901	9.000	-779.80750	-20.75513	-657.25488	790.83044	-22.09161	-634.95752	-711.54199	31.59596	475.33740	703.59357	32.99636	581.11353	16.73581	1261.84106	-1028.16040	
902	9.010	-779.66656	-20.85201	-657.35455	790.91083	-22.22510	-635.04602	-711.33685	31.65273	475.40439	703.70825	32.99289	581.04144	16.71416	1261.69165	-1028.06653	
903	9.020	-779.24402	-21.03906	-657.07971	790.95697	-22.38458	-635.02710	-711.19580	31.67989	475.43140	703.92407	33.07507	581.00110	16.88474	1261.44177	-1028.03784	
904	9.030	-779.11346	-21.06909	-657.20917	791.04456	-22.57053	-635.03265	-711.29358	32.08728	475.25748	704.01355	33.14176	580.93011	17.00529	1261.13306	-1028.02539	
905	9.040	-778.93475	-21.15723	-657.31317	791.28656	-22.74047	-635.05878	-710.84216	31.51755	475.44315	704.31866	33.29768	580.89868	17.19879	1260.83765	-1028.24292	
906	9.050	-778.77686	-21.30458	-657.38611	791.43463	-22.90253	-635.13367	-710.62250	31.46451	475.49579	704.45551	33.43349	580.86353	17.54122	1260.65698	-1028.62476	
907	9.060	-778.57062	-21.35891	-657.37988	791.67926	-23.01137	-635.14374	-710.38342	31.51896	475.43820	704.73322	33.59113	580.82153	17.58000	1260.32031	-1029.02466	
908	9.070	-778.39600	-21.46569	-657.48401	791.74524	-23.21972	-635.21637	-710.15826	31.60008	475.34988	705.28992	33.92363	580.85315	17.83225	1260.35828	-1029.50513	
909	9.080	-778.32550	-21.52122	-657.50995	791.78979	-23.25699	-635.18884	-710.03101	31.75460	475.29651	704.79504	33.67574	580.75171	17.93471	1260.13110	-1030.14441	
910	9.090	-778.25238	-21.56634	-657.52216	792.20996	-23.19815	-635.14618	-709.84259	31.83106	475.26630	703.63837	32.64237	580.45026	18.16483	1259.94922	-1031.00085	
911	9.100	-778.07739	-21.87784	-657.60767	792.47235	-23.34280	-635.07623	-709.54242	32.03026	475.20966	704.36725	33.16257	580.42023	18.03467	1259.78699	-1031.55164	
912	9.110	-778.16602	-22.28502	-657.96069	792.81238	-23.50278	-635.05457	-709.36615	32.15341	475.19839	705.41199	34.00697	580.62567	18.34910	1259.66016	-1032.03601	
913	9.120	-777.96472	-22.35146	-658.04999	793.01367	-23.70085	-634.99341	-709.18146	32.13350	475.19510	705.66028	34.24638	580.60156	18.54610	1259.38391	-1032.29248	
914	9.130	-777.76343	-22.32174	-657.97260	793.12720	-23.75668	-635.03094	-708.99146	32.23051	475.19330	705.91876	34.33971	580.58777	18.76433	1259.06787	-1032.52734	
915	9.140	-777.55554	-22.44426	-657.99402	793.33606	-23.90645	-635.05566	-708.89270	32.31613	475.15192	706.14978	34.40363	580.55377	18.99536	1258.69910	-1032.61096	
916	9.150	-777.39496	-22.48267	-657.97937	793.48895	-24.04342	-635.11572	-708.66235	32.44208	475.08466	706.39227	34.61066	580.53857	19.11298	1258.42639	-1032.64734	
917	9.160	-777.21716	-22.69052	-657.90039	793.74091	-24.19494	-635.16040	-708.44489	32.60252	475.04913	706.65179	34.70723	580.44916	19.22906	1258.23010	-1032.55640	
918	9.170	-777.03888	-23.12308	-657.91095	793.89166	-24.38773	-635.18872	-708.13947	32.62432	475.05353	706.80206	34.88158	580.37500	19.72422	1257.97095	-1032.40063	
919	9.180	-776.57581	-23.42425	-657.99756	794.09338	-24.57404	-635.20856	-708.00354	32.78732	475.06345	707.04767	35.02692	580.36169	20.08233	1257.57446	-1032.41992	
920	9.190	-776.16992	-23.47230	-657.92535	794.36829	-24.69803	-635.23315	-707.80121	33.01438	475.05945	707.25391	35.07790	580.36884	20.15711	1257.45300	-1032.62146	
921	9.200	-776.09113	-23.73926	-657.95453	794.52985	-24.77894	-635.25476	-707.69531	33.38675	474.63522	707.46289	35.22749	580.37164	20.36816	1257.32349	-1033.24182	
922	9.210	-775.84253	-23.69535	-657.95776	794.89532	-24.95942	-635.30377	-707.38464	33.48310	474.61667	707.81653	35.42242	580.31976	20.49813	1257.15601	-1034.08191	
923	9.220	-775.62128	-23.92588	-657.84747	795.13123	-25.17805	-635.33710	-707.27582	33.51788	474.54910	708.02234	35.55027	580.30267	20.32705	1256.77039	-1034.33679	
